<mxfile host="Electron" agent="Mozilla/5.0 (X11; Linux x86_64) AppleWebKit/537.36 (KHTML, like Gecko) draw.io/24.7.5 Chrome/126.0.6478.183 Electron/31.3.0 Safari/537.36" version="24.7.5">
  <diagram name="Страница — 1" id="KLpsNkmg8rh9CQqxTWce">
    <mxGraphModel dx="1941" dy="845" grid="1" gridSize="10" guides="1" tooltips="1" connect="1" arrows="1" fold="1" page="1" pageScale="1" pageWidth="827" pageHeight="1169" math="0" shadow="0">
      <root>
        <mxCell id="0" />
        <mxCell id="1" parent="0" />
        <mxCell id="BFZPNBK2REnB-MUttzsF-2" value="&lt;p style=&quot;line-height: 1px; text-align: left; margin-bottom: 0cm; direction: ltr; background: transparent; font-size: medium; font-weight: 400; text-indent: 1.25cm;&quot; align=&quot;justify&quot;&gt;&lt;font color=&quot;#000000&quot;&gt;&lt;font face=&quot;Times, serif&quot;&gt;Информационная система для точки проката ЦПКиО Санкт-Петербурга.&amp;nbsp;&lt;/font&gt;&lt;/font&gt;&lt;/p&gt;" style="swimlane;whiteSpace=wrap;html=1;" vertex="1" parent="1">
          <mxGeometry x="80" y="140" width="710" height="590" as="geometry" />
        </mxCell>
        <mxCell id="BFZPNBK2REnB-MUttzsF-10" value="Формирует заказ на аренду" style="ellipse;whiteSpace=wrap;html=1;" vertex="1" parent="BFZPNBK2REnB-MUttzsF-2">
          <mxGeometry x="540" y="80" width="120" height="80" as="geometry" />
        </mxCell>
        <mxCell id="BFZPNBK2REnB-MUttzsF-11" value="Формирует заказ на аренду" style="ellipse;whiteSpace=wrap;html=1;" vertex="1" parent="BFZPNBK2REnB-MUttzsF-2">
          <mxGeometry x="40" y="380" width="120" height="80" as="geometry" />
        </mxCell>
        <mxCell id="BFZPNBK2REnB-MUttzsF-12" value="Принимает товар" style="ellipse;whiteSpace=wrap;html=1;" vertex="1" parent="BFZPNBK2REnB-MUttzsF-2">
          <mxGeometry x="40" y="510" width="120" height="80" as="geometry" />
        </mxCell>
        <mxCell id="BFZPNBK2REnB-MUttzsF-13" value="Может отслеживать все заказы и составлять отчеты по арендуемым позициям для дальнейшего анализа" style="ellipse;whiteSpace=wrap;html=1;" vertex="1" parent="BFZPNBK2REnB-MUttzsF-2">
          <mxGeometry x="15" y="250" width="170" height="90" as="geometry" />
        </mxCell>
        <mxCell id="BFZPNBK2REnB-MUttzsF-14" value="Контролирует всех пользователей по истории входа" style="ellipse;whiteSpace=wrap;html=1;" vertex="1" parent="BFZPNBK2REnB-MUttzsF-2">
          <mxGeometry x="170" y="170" width="120" height="80" as="geometry" />
        </mxCell>
        <mxCell id="BFZPNBK2REnB-MUttzsF-15" value="Работает с данными о расходных материалах, используемых на точке проката." style="ellipse;whiteSpace=wrap;html=1;" vertex="1" parent="BFZPNBK2REnB-MUttzsF-2">
          <mxGeometry x="40" y="50" width="140" height="100" as="geometry" />
        </mxCell>
        <mxCell id="BFZPNBK2REnB-MUttzsF-16" value="" style="endArrow=classic;html=1;rounded=0;entryX=0.075;entryY=0.313;entryDx=0;entryDy=0;entryPerimeter=0;dashed=1;" edge="1" parent="BFZPNBK2REnB-MUttzsF-2" source="BFZPNBK2REnB-MUttzsF-15">
          <mxGeometry width="50" height="50" relative="1" as="geometry">
            <mxPoint x="76" y="130.00059701492543" as="sourcePoint" />
            <mxPoint x="195" y="187.75999999999993" as="targetPoint" />
          </mxGeometry>
        </mxCell>
        <mxCell id="BFZPNBK2REnB-MUttzsF-18" value="" style="endArrow=classic;html=1;rounded=0;dashed=1;" edge="1" parent="BFZPNBK2REnB-MUttzsF-2" source="BFZPNBK2REnB-MUttzsF-13" target="BFZPNBK2REnB-MUttzsF-14">
          <mxGeometry width="50" height="50" relative="1" as="geometry">
            <mxPoint x="61" y="75" as="sourcePoint" />
            <mxPoint x="160" y="157" as="targetPoint" />
          </mxGeometry>
        </mxCell>
        <mxCell id="BFZPNBK2REnB-MUttzsF-20" value="" style="endArrow=classic;html=1;rounded=0;dashed=1;exitX=0.5;exitY=1;exitDx=0;exitDy=0;" edge="1" parent="BFZPNBK2REnB-MUttzsF-2" source="BFZPNBK2REnB-MUttzsF-11" target="BFZPNBK2REnB-MUttzsF-12">
          <mxGeometry width="50" height="50" relative="1" as="geometry">
            <mxPoint x="60" y="433.24" as="sourcePoint" />
            <mxPoint x="105" y="480" as="targetPoint" />
          </mxGeometry>
        </mxCell>
        <mxCell id="BFZPNBK2REnB-MUttzsF-24" value="&lt;p align=&quot;justify&quot; style=&quot;line-height: 100%; text-indent: 1.27cm; margin-bottom: 0cm&quot;&gt;Include&lt;/p&gt;" style="text;whiteSpace=wrap;html=1;" vertex="1" parent="BFZPNBK2REnB-MUttzsF-2">
          <mxGeometry x="130" y="230" width="120" height="60" as="geometry" />
        </mxCell>
        <mxCell id="BFZPNBK2REnB-MUttzsF-25" value="&lt;p align=&quot;justify&quot; style=&quot;line-height: 100%; text-indent: 1.27cm; margin-bottom: 0cm&quot;&gt;extend&lt;/p&gt;" style="text;whiteSpace=wrap;html=1;" vertex="1" parent="BFZPNBK2REnB-MUttzsF-2">
          <mxGeometry x="130" y="130" width="120" height="60" as="geometry" />
        </mxCell>
        <mxCell id="BFZPNBK2REnB-MUttzsF-26" value="&lt;p align=&quot;justify&quot; style=&quot;line-height: 100%; text-indent: 1.27cm; margin-bottom: 0cm&quot;&gt;extend&lt;/p&gt;" style="text;whiteSpace=wrap;html=1;" vertex="1" parent="BFZPNBK2REnB-MUttzsF-2">
          <mxGeometry x="60" y="450" width="120" height="60" as="geometry" />
        </mxCell>
        <mxCell id="BFZPNBK2REnB-MUttzsF-4" value="Администратор" style="shape=umlActor;verticalLabelPosition=bottom;verticalAlign=top;html=1;outlineConnect=0;" vertex="1" parent="1">
          <mxGeometry x="-10" y="240" width="30" height="60" as="geometry" />
        </mxCell>
        <mxCell id="BFZPNBK2REnB-MUttzsF-5" value="Старший смены" style="shape=umlActor;verticalLabelPosition=bottom;verticalAlign=top;html=1;outlineConnect=0;" vertex="1" parent="1">
          <mxGeometry x="-10" y="525" width="30" height="60" as="geometry" />
        </mxCell>
        <mxCell id="BFZPNBK2REnB-MUttzsF-9" value="Продавец" style="shape=umlActor;verticalLabelPosition=bottom;verticalAlign=top;html=1;outlineConnect=0;" vertex="1" parent="1">
          <mxGeometry x="800" y="230" width="30" height="60" as="geometry" />
        </mxCell>
        <mxCell id="BFZPNBK2REnB-MUttzsF-17" value="" style="endArrow=classic;html=1;rounded=0;" edge="1" parent="1" target="BFZPNBK2REnB-MUttzsF-15">
          <mxGeometry width="50" height="50" relative="1" as="geometry">
            <mxPoint x="20" y="280" as="sourcePoint" />
            <mxPoint x="119" y="362" as="targetPoint" />
          </mxGeometry>
        </mxCell>
        <mxCell id="BFZPNBK2REnB-MUttzsF-19" value="" style="endArrow=classic;html=1;rounded=0;entryX=0.025;entryY=0.288;entryDx=0;entryDy=0;entryPerimeter=0;" edge="1" parent="1" target="BFZPNBK2REnB-MUttzsF-11">
          <mxGeometry width="50" height="50" relative="1" as="geometry">
            <mxPoint y="567" as="sourcePoint" />
            <mxPoint x="104" y="543" as="targetPoint" />
          </mxGeometry>
        </mxCell>
        <mxCell id="BFZPNBK2REnB-MUttzsF-21" value="" style="endArrow=classic;html=1;rounded=0;entryX=1;entryY=0.5;entryDx=0;entryDy=0;exitX=0.5;exitY=0.5;exitDx=0;exitDy=0;exitPerimeter=0;" edge="1" parent="1" source="BFZPNBK2REnB-MUttzsF-9" target="BFZPNBK2REnB-MUttzsF-10">
          <mxGeometry width="50" height="50" relative="1" as="geometry">
            <mxPoint x="670" y="244" as="sourcePoint" />
            <mxPoint x="793" y="220" as="targetPoint" />
          </mxGeometry>
        </mxCell>
      </root>
    </mxGraphModel>
  </diagram>
</mxfile>
